<svg width="50" height="50" viewBox="0 0 50 50" fill="none" xmlns="http://www.w3.org/2000/svg">
<mask id="mask0_134_90" style="mask-type:luminance" maskUnits="userSpaceOnUse" x="0" y="0" width="50" height="50">
<path d="M48.9004 1.09961V48.9004H1.09961V1.09961H48.9004Z" fill="white" stroke="white" stroke-width="2.2"/>
</mask>
<g mask="url(#mask0_134_90)">
<path d="M19.1406 20.1176L19.1396 20.1185V20.1176H19.1318M19.1406 20.1176V20.2386C19.1164 20.2383 19.093 20.2325 19.0723 20.2201C19.0629 20.2137 19.0547 20.2065 19.0479 20.1986M19.1406 20.1176V20.1185H19.1416V20.1176H19.1406ZM19.1406 20.1176H19.0166M19.1406 20.1176L19.1416 20.1166M19.0479 20.1986L19.127 20.1254M19.0479 20.1986L19.127 20.1254M19.0479 20.1986C19.0422 20.1921 19.0372 20.1853 19.0332 20.1781C19.0231 20.1597 19.0168 20.1386 19.0166 20.1176M19.127 20.1254L19.1318 20.1176M19.127 20.1254L19.1318 20.1176M19.1318 20.1176H19.0166M19.0166 20.1176V20.1166C19.0166 20.0841 19.0298 20.0527 19.0527 20.0297L19.0537 20.0287C19.0764 20.0064 19.1069 19.9939 19.1387 19.9935H19.1406V20.1156M19.1416 20.1166V20.2386C19.174 20.2385 19.2056 20.2264 19.2285 20.2035C19.2398 20.1921 19.2488 20.1789 19.2549 20.1644L19.2637 20.1185V20.1166C19.2633 20.0849 19.2511 20.0548 19.2295 20.0316L19.1504 20.1039M19.1416 20.1166L19.1406 20.1156M19.1416 20.1166L19.1406 20.1156M19.1406 20.1156L19.1436 20.1107M19.1436 20.1107L19.1416 20.1117M19.1436 20.1107L19.1416 20.1117M19.1436 20.1107L19.1416 20.1136V20.1117M19.1416 20.1117V19.9935L19.1904 20.0043L19.2012 20.0111C19.2034 20.0124 19.2049 20.0146 19.207 20.016M19.207 20.016L19.1504 20.1039M19.207 20.016L19.1504 20.1039M19.207 20.016C19.2146 20.0209 19.2221 20.0253 19.2285 20.0316L19.1504 20.1039" fill="#306C6C" stroke="#B7C634" stroke-width="2.2"/>
<path d="M25 0.976562V7.42206" stroke="#B7C634" stroke-width="2.2" stroke-linecap="round" stroke-linejoin="round"/>
<path d="M25 42.578V49.0235" stroke="#B7C634" stroke-width="2.2" stroke-linecap="round" stroke-linejoin="round"/>
<path d="M6.47363 8.427L10.6171 12.5705" stroke="#B7C634" stroke-width="2.2" stroke-linecap="round" stroke-linejoin="round"/>
<path d="M39.3828 38.406L43.5263 42.5495" stroke="#B7C634" stroke-width="2.2" stroke-linecap="round" stroke-linejoin="round"/>
<path d="M43.5263 8.427L39.3828 12.5705" stroke="#B7C634" stroke-width="2.2" stroke-linecap="round" stroke-linejoin="round"/>
<path d="M10.6171 38.406L6.47363 42.5495" stroke="#B7C634" stroke-width="2.2" stroke-linecap="round" stroke-linejoin="round"/>
<path d="M46.4837 24.9999C46.4837 24.9999 37.9436 37.6954 24.9991 37.6954C12.0546 37.6954 3.51465 24.9999 3.51465 24.9999C3.51465 24.9999 12.0546 12.3044 24.9991 12.3044C37.9436 12.3044 46.4837 24.9999 46.4837 24.9999Z" stroke="#B7C634" stroke-width="2.2" stroke-linecap="round" stroke-linejoin="round"/>
<path d="M22.2085 17.701C22.2435 17.6875 22.279 17.6745 22.314 17.662C22.349 17.6495 22.392 17.6335 22.431 17.62C22.47 17.6065 22.5015 17.5955 22.5375 17.584C22.5835 17.5685 22.6315 17.553 22.678 17.538C22.7385 17.5195 22.799 17.501 22.8605 17.4845C22.922 17.468 22.9805 17.4505 23.042 17.4345C23.1035 17.4185 23.171 17.4025 23.2355 17.3875C23.3 17.3725 23.3555 17.36 23.416 17.3485C23.466 17.338 23.516 17.328 23.5635 17.319C23.611 17.31 23.6495 17.3035 23.6925 17.2965C23.716 17.2915 23.7425 17.2875 23.7645 17.285C23.8085 17.277 23.8525 17.2715 23.8965 17.2655C23.908 17.2655 23.919 17.2615 23.9305 17.2605C23.9675 17.2545 24.0055 17.25 24.044 17.245C24.0825 17.24 24.126 17.235 24.167 17.2315L24.2255 17.2255C24.2675 17.2205 24.3105 17.2165 24.3525 17.214C24.375 17.214 24.3975 17.21 24.42 17.209C24.4425 17.208 24.4775 17.204 24.506 17.203C24.548 17.2 24.591 17.198 24.633 17.196C24.6875 17.193 24.7425 17.191 24.798 17.19C24.8645 17.19 24.9325 17.187 24.998 17.187C26.024 17.187 27.04 17.3891 27.9879 17.7817C28.9358 18.1744 29.7971 18.7499 30.5226 19.4754C31.2481 20.2009 31.8236 21.0622 32.2163 22.0101C32.6089 22.958 32.811 23.974 32.811 25C32.813 26.3006 32.4886 27.5808 31.8675 28.7235C31.808 28.833 31.7465 28.9415 31.682 29.0465C31.6485 29.102 31.6145 29.156 31.5795 29.2105C31.517 29.3105 31.4525 29.404 31.386 29.4985L31.3655 29.527C31.2231 29.7283 31.0706 29.9222 30.9085 30.108C30.7865 30.2497 30.6588 30.387 30.5255 30.52C30.4055 30.64 30.2815 30.7575 30.1535 30.87C29.6149 31.3445 29.0132 31.7421 28.3655 32.0515C28.258 32.1015 28.1495 32.1515 28.039 32.199C27.8055 32.299 27.5655 32.3855 27.3215 32.4615C27.0749 32.5383 26.8246 32.6025 26.5715 32.654C26.0536 32.7601 25.5262 32.8134 24.9975 32.813C22.9259 32.8122 20.9394 31.9887 19.4748 30.5236C18.0102 29.0584 17.1875 27.0716 17.1875 25C17.1875 24.9325 17.1875 24.865 17.1905 24.8C17.1905 24.7455 17.1935 24.6915 17.1965 24.637C17.1995 24.5825 17.2015 24.537 17.2045 24.487L17.2075 24.443C17.2115 24.396 17.214 24.3495 17.219 24.3025C17.219 24.291 17.219 24.28 17.222 24.2685C17.227 24.213 17.233 24.157 17.2395 24.1025C17.246 24.044 17.253 23.9855 17.262 23.9265C17.268 23.8825 17.2735 23.8385 17.2815 23.7945C17.2895 23.736 17.299 23.6795 17.31 23.6215C17.31 23.606 17.315 23.591 17.318 23.5755" stroke="#B7C634" stroke-width="2.2" stroke-linecap="round" stroke-linejoin="round"/>
<path d="M24.9998 27.9301C24.2232 27.929 23.4787 27.62 22.9295 27.0709C22.3804 26.5217 22.0714 25.7772 22.0703 25.0006C22.0712 24.2238 22.3802 23.4792 22.9293 22.9299C23.4785 22.3807 24.2231 22.0716 24.9998 22.0706C25.7764 22.0716 26.521 22.3806 27.0701 22.9298C27.6193 23.4789 27.9283 24.2234 27.9293 25.0001C27.9284 25.7768 27.6195 26.5214 27.0703 27.0707C26.5211 27.6199 25.7765 27.929 24.9998 27.9301Z" stroke="#B7C634" stroke-width="2.2" stroke-linecap="round" stroke-linejoin="round"/>
</g>
</svg>
